<svg width="36" height="37" viewBox="0 0 36 37" fill="none" xmlns="http://www.w3.org/2000/svg">
<path fill-rule="evenodd" clip-rule="evenodd" d="M26.3161 8.48438H9.14427C6.71382 8.48438 4.73438 10.4722 4.73438 12.8943V23.5682C4.73438 25.9987 6.72217 27.9781 9.14427 27.9781H15.2079L16.2519 29.7822L17.2792 31.5611C17.4629 31.8869 17.9306 31.8869 18.1227 31.5611L19.1501 29.7822L20.1941 27.9781H26.3245C28.7549 27.9781 30.7344 25.9903 30.7344 23.5682V12.9026C30.7344 10.4722 28.7466 8.48438 26.3161 8.48438ZM18.9329 16.3024C17.6049 16.3024 16.5275 17.3631 16.5275 18.6744C16.5275 19.9857 17.6049 21.0464 18.9329 21.0464C20.2608 21.0464 21.3383 19.9857 21.3383 18.6744C21.3383 17.3631 20.2692 16.3024 18.9329 16.3024ZM18.9329 19.8103C18.2981 19.8103 17.7803 19.3008 17.7803 18.6744C17.7803 18.048 18.2981 17.5385 18.9329 17.5385C19.5676 17.5385 20.0855 18.048 20.0855 18.6744C20.0855 19.3008 19.576 19.8103 18.9329 19.8103ZM9.94595 16.8454C10.3218 16.503 10.8062 16.3026 11.324 16.3026C12.5267 16.3026 13.4872 17.3716 13.4872 18.6829C13.4872 19.9942 12.5184 21.0549 11.324 21.0549C10.7979 21.0549 10.3218 20.8461 9.94595 20.512V20.938H8.60962V14.8827H9.94595V16.8454ZM9.9543 19.1423C10.138 19.5682 10.564 19.8605 11.0568 19.8605C11.7249 19.8605 12.2595 19.3344 12.2595 18.6746C12.2595 18.0147 11.7249 17.4886 11.0568 17.4886C10.564 17.4886 10.138 17.7809 9.9543 18.2068C9.88749 18.3488 9.85408 18.5075 9.85408 18.6746C9.85408 18.8416 9.89584 19.0003 9.9543 19.1423ZM25.5061 16.4029V16.7788C25.1302 16.4864 24.6625 16.311 24.1614 16.311C22.9336 16.311 21.9397 17.3383 21.9397 18.5995C21.9397 19.8607 22.9336 20.888 24.1614 20.888C24.6709 20.888 25.1386 20.7126 25.5061 20.4203V21.055C25.5061 21.055 25.3724 21.6814 24.437 21.6814V22.8591C24.437 22.8591 25.4476 22.976 26.3496 22.074C26.3496 22.074 26.7672 21.6313 26.8591 21.0467V16.4029H25.5061ZM24.412 19.7604C23.7354 19.7604 23.1925 19.2343 23.1925 18.5912C23.1925 17.948 23.7438 17.4219 24.412 17.4219C24.888 17.4219 25.3056 17.6891 25.5061 18.0733C25.5896 18.232 25.6314 18.4074 25.6314 18.5912C25.6314 18.7749 25.5812 18.9586 25.5061 19.109C25.3056 19.5015 24.888 19.7604 24.412 19.7604ZM13.6378 15.9765V14.7654C13.6378 14.7654 14.5231 14.6485 15.3082 15.5756C15.3082 15.5756 15.6673 16.0266 15.7508 16.6279V16.6613V20.9376H14.3728V16.6613C14.2558 16.06 13.6378 15.9765 13.6378 15.9765Z" fill="white"/>
</svg>
