<svg width="36" height="37" viewBox="0 0 36 37" fill="none" xmlns="http://www.w3.org/2000/svg">
<path fill-rule="evenodd" clip-rule="evenodd" d="M18 4.8833C14.3334 4.8833 13.8744 4.8986 12.4344 4.9643C10.9971 5.03 10.0152 5.2586 9.1566 5.5925C8.2566 5.9309 7.4403 6.4619 6.7653 7.1495C6.0788 7.82372 5.54747 8.63945 5.2083 9.5399C4.8762 10.3985 4.6467 11.3813 4.581 12.8186C4.5162 14.2577 4.5 14.7158 4.5 18.3833C4.5 22.0508 4.5153 22.5089 4.581 23.9489C4.6467 25.3862 4.8753 26.3681 5.2092 27.2267C5.5476 28.1267 6.0786 28.943 6.7662 29.618C7.44044 30.3045 8.25616 30.8358 9.1566 31.175C10.0152 31.508 10.9971 31.7366 12.4344 31.8023C13.8744 31.868 14.3334 31.8833 18 31.8833C21.6666 31.8833 22.1256 31.868 23.5656 31.8023C25.0029 31.7366 25.9848 31.508 26.8434 31.1741C27.7434 30.8357 28.5597 30.3047 29.2347 29.6171C29.9212 28.9429 30.4525 28.1272 30.7917 27.2267C31.1247 26.3681 31.3533 25.3862 31.419 23.9489C31.4847 22.5089 31.5 22.0499 31.5 18.3833C31.5 14.7167 31.4847 14.2577 31.419 12.8177C31.3533 11.3804 31.1247 10.3985 30.7908 9.5399C30.4519 8.63906 29.9205 7.82299 29.2338 7.1486C28.5596 6.4621 27.7439 5.93077 26.8434 5.5916C25.9848 5.2595 25.002 5.03 23.5647 4.9643C22.1256 4.8995 21.6675 4.8833 18 4.8833ZM18 7.316C21.6045 7.316 22.032 7.3295 23.4558 7.3943C24.7716 7.4546 25.4862 7.6733 25.9623 7.8596C26.5923 8.1035 27.0423 8.3969 27.5148 8.8685C27.9873 9.341 28.2798 9.791 28.5237 10.421C28.7091 10.8971 28.9287 11.6117 28.989 12.9275C29.0538 14.3513 29.0673 14.7788 29.0673 18.3833C29.0673 21.9878 29.0538 22.4153 28.989 23.8391C28.9287 25.1549 28.71 25.8695 28.5237 26.3456C28.3076 26.932 27.9629 27.4625 27.5148 27.8981C27.0793 28.3463 26.5487 28.6911 25.9623 28.907C25.4862 29.0924 24.7716 29.312 23.4558 29.3723C22.032 29.4371 21.6054 29.4506 18 29.4506C14.3946 29.4506 13.968 29.4371 12.5442 29.3723C11.2284 29.312 10.5138 29.0933 10.0377 28.907C9.45131 28.6909 8.92081 28.3462 8.4852 27.8981C8.03716 27.4625 7.69242 26.932 7.4763 26.3456C7.2909 25.8695 7.0713 25.1549 7.011 23.8391C6.9462 22.4153 6.9327 21.9878 6.9327 18.3833C6.9327 14.7788 6.9462 14.3513 7.011 12.9275C7.0713 11.6117 7.29 10.8971 7.4763 10.421C7.7202 9.791 8.0136 9.341 8.4852 8.8685C8.92075 8.42034 9.45127 8.07558 10.0377 7.8596C10.5138 7.6742 11.2284 7.4546 12.5442 7.3943C13.968 7.3295 14.3955 7.316 18 7.316V7.316Z" fill="white"/>
<path fill-rule="evenodd" clip-rule="evenodd" d="M17.9995 22.8879C17.408 22.8879 16.8223 22.7713 16.2757 22.545C15.7292 22.3186 15.2327 21.9868 14.8144 21.5685C14.3961 21.1502 14.0643 20.6537 13.8379 20.1071C13.6116 19.5606 13.495 18.9749 13.495 18.3834C13.495 17.7918 13.6116 17.2061 13.8379 16.6596C14.0643 16.113 14.3961 15.6165 14.8144 15.1982C15.2327 14.7799 15.7292 14.4481 16.2757 14.2217C16.8223 13.9954 17.408 13.8789 17.9995 13.8789C19.1942 13.8789 20.3399 14.3534 21.1847 15.1982C22.0295 16.0429 22.504 17.1887 22.504 18.3834C22.504 19.578 22.0295 20.7238 21.1847 21.5685C20.3399 22.4133 19.1942 22.8879 17.9995 22.8879V22.8879ZM17.9995 11.4444C16.1592 11.4444 14.3942 12.1754 13.0929 13.4767C11.7916 14.7781 11.0605 16.543 11.0605 18.3834C11.0605 20.2237 11.7916 21.9887 13.0929 23.29C14.3942 24.5913 16.1592 25.3223 17.9995 25.3223C19.8399 25.3223 21.6048 24.5913 22.9062 23.29C24.2075 21.9887 24.9385 20.2237 24.9385 18.3834C24.9385 16.543 24.2075 14.7781 22.9062 13.4767C21.6048 12.1754 19.8399 11.4444 17.9995 11.4444V11.4444ZM26.9572 11.3184C26.9572 11.7534 26.7844 12.1706 26.4768 12.4782C26.1692 12.7858 25.752 12.9586 25.317 12.9586C24.882 12.9586 24.4648 12.7858 24.1572 12.4782C23.8496 12.1706 23.6767 11.7534 23.6767 11.3184C23.6767 10.8833 23.8496 10.4661 24.1572 10.1585C24.4648 9.85091 24.882 9.6781 25.317 9.6781C25.752 9.6781 26.1692 9.85091 26.4768 10.1585C26.7844 10.4661 26.9572 10.8833 26.9572 11.3184" fill="white"/>
</svg>
