<svg width="36" height="37" viewBox="0 0 36 37" fill="none" xmlns="http://www.w3.org/2000/svg">
<path fill-rule="evenodd" clip-rule="evenodd" d="M28.9089 8.98769C30.113 9.31736 31.0655 10.2881 31.389 11.5152C31.982 13.7496 32 18.3833 32 18.3833C32 18.3833 32 23.0353 31.4069 25.2514C31.0834 26.4785 30.1309 27.4492 28.9268 27.7789C26.7522 28.3833 18 28.3833 18 28.3833C18 28.3833 9.24775 28.3833 7.07317 27.7789C5.86906 27.4492 4.91656 26.4785 4.59307 25.2514C4 23.017 4 18.3833 4 18.3833C4 18.3833 4 13.7496 4.5751 11.5335C4.89859 10.3064 5.85109 9.33568 7.0552 9.00602C9.22978 8.40161 17.982 8.3833 17.982 8.3833C17.982 8.3833 26.7343 8.3833 28.9089 8.98769ZM22.457 18.3833L15.1964 22.669V14.0976L22.457 18.3833Z" fill="black"/>
</svg>
