<svg width="20" height="21" viewBox="0 0 20 21" fill="none" xmlns="http://www.w3.org/2000/svg">
<path fill-rule="evenodd" clip-rule="evenodd" d="M6.23851 6.06032C6.45755 5.84127 6.8127 5.84127 7.03175 6.06032L10.0006 9.02915L12.9694 6.06032C13.1885 5.84127 13.5436 5.84127 13.7626 6.06032C13.9817 6.27937 13.9817 6.63452 13.7626 6.85356L10.3972 10.219C10.1782 10.4381 9.823 10.4381 9.60396 10.219L6.23851 6.85356C6.01946 6.63452 6.01946 6.27937 6.23851 6.06032Z" fill="white"/>
<path fill-rule="evenodd" clip-rule="evenodd" d="M6.23851 10.5476C6.45755 10.3286 6.8127 10.3286 7.03175 10.5476L10.0006 13.5165L12.9694 10.5476C13.1885 10.3286 13.5436 10.3286 13.7626 10.5476C13.9817 10.7667 13.9817 11.1218 13.7626 11.3409L10.3972 14.7063C10.1782 14.9254 9.823 14.9254 9.60396 14.7063L6.23851 11.3409C6.01946 11.1218 6.01946 10.7667 6.23851 10.5476Z" fill="white"/>
</svg>
